<?xml version="1.0" encoding="utf-8"?>
<!-- Generator: Adobe Illustrator 19.0.0, SVG Export Plug-In . SVG Version: 6.00 Build 0)  -->
<svg version="1.1" id="Layer_1" xmlns="http://www.w3.org/2000/svg" xmlns:xlink="http://www.w3.org/1999/xlink" x="0px" y="0px"
	 width="200px" height="100px" viewBox="-255 347 200 100" style="enable-background:new -255 347 200 100;" xml:space="preserve">
<style type="text/css">
	.st0{fill:#43AD49;}
</style>
<path class="st0" d="M-181.1,396.5h7.4c2.9,0,5.4,3.9,5.6,6.5c0.1,2.8-1.9,5.5-4.7,6.1c-1.6,0.3-3.3-0.1-4.8-0.9
	c-1.2-0.7-3.3-2.1-3.5-3.5c-0.3-1.4,0-3.2,0-4.6V396.5z M-184.2,396.5v7.7c0,1.5-1.2,2.4-2.3,3.3c-1.4,1.1-3,1.8-4.8,1.8
	c-2.8,0-5.3-2.2-5.8-4.9c-0.3-1.4,0-2.9,0.8-4.2c0.8-1.4,2.7-3.3,4.4-3.7c1.2-0.3,2.7,0,3.9,0C-188,396.5-184.2,396.5-184.2,396.5z
	 M-181.1,393.6v-7.5c0-0.3-0.1-0.7,0-1c0.3-0.8,1.6-1.8,2.3-2.3c1.4-1.1,3.1-1.9,4.9-1.8c2.9,0.1,5.3,2.3,5.7,5.1
	c0.2,1.5-0.2,3.1-1.1,4.4c-0.8,1.2-2.4,2.9-3.9,3.2c-1.3,0.3-3,0-4.3,0C-178.6,393.6-179.8,393.6-181.1,393.6z M-184.1,393.6
	c-2.4,0-5.1,0.3-7.5,0c-2.9-0.4-5.6-4-5.5-6.8c0-2.8,2.1-5.3,4.9-5.8c1.5-0.3,3.1,0,4.5,0.8c1.2,0.7,3.4,2.2,3.7,3.6
	c0.3,1.4,0,3.2,0,4.6C-184.1,391.1-184.1,392.4-184.1,393.6z M-121.9,393.5h22.4c0,2.1-0.1,4.2-0.2,6.2c-1.7-0.4-3.4-0.7-5.2-0.8
	c-0.5,0-2.8-0.5-3.3-0.2c-0.3,0.2-0.3,1.7-0.4,2.1l-0.3,1.5c-0.8,5.1-1.5,10.3-1.9,15.4c-0.1,1.2-0.2,2.5-0.2,3.7
	c0,0.2,0.1,0.9,0,1.1c-0.2,0.5,0.2,0.2-0.4,0.4s-1.5,0-2.1,0h-5.9c2-8,3.2-16.1,4.1-24.3c-2.9,0-5.8,0.4-8.7,1
	c0.3-1.2,0.6-2.3,0.9-3.5C-122.9,395.8-122.7,393.3-121.9,393.5z M-181.3,421.9v-12.1c4.2,3.5,10.3,4.4,14.2,0.1
	c3.6-3.9,3.1-9.7-0.7-13.3h11.8c-2,9-4.7,17.8-7.6,26.5h3.7h2.6c0.2,0,1.2,0.1,1.3,0c0.2-0.1,0.2-1.2,0.2-1.4
	c0.2-0.9,0.3-1.8,0.5-2.7c0.3-1.8,0.7-3.6,1.1-5.4c0.7-3.5,1.6-6.9,2.4-10.4c1.4,4.8,2.3,9.8,3.1,14.8c0.2,1.1,0.3,2.2,0.5,3.3
	c0.1,0.4,0,1.6,0.4,1.8c0.6,0.3,2.1,0,2.7,0c0.6,0,1.6,0.2,2-0.2c0.5-0.5,0.8-1.9,1.1-2.6c0.5-1.1,0.9-2.2,1.4-3.3
	c2-4.5,4-9,6.1-13.5c-0.2,6.5-0.3,13.1-1.1,19.6h8c-1-9.8-1-19.7-0.2-29.5h-3.8h-2.8c-0.3,0-1-0.1-1.3,0c-0.2,0.1-0.3,0.5-0.4,0.8
	c-0.4,0.9-0.7,1.9-1.1,2.8c-0.7,1.7-1.4,3.4-2.2,5.1c-1.4,3.1-2.8,6.2-4.3,9.3c-1-4.5-1.9-9-2.6-13.6c-0.2-1-0.3-2-0.5-3
	c0-0.1-0.1-1.3-0.2-1.4s-1,0-1.2,0H-163h-4.6c3.7-3.6,4.2-9.4,0.7-13.3c-4-4.3-10.1-3.4-14.2,0.1v-6c0-0.9,0.2-2.1,0-3
	c0-0.1,0.1-0.4,0-0.5c-0.1-0.2-1.2,0-1.4,0s-1.3-0.2-1.4,0c-0.1,0.1,0,0.3,0,0.5c-0.2,0.9,0,2.1,0,3v6c-4.1-3.7-10.1-4.4-14.1-0.2
	c-3.6,3.9-3.4,9.7,0.4,13.3h-5.2h-4c-0.9,0-1.9-0.1-2.8,0c-0.8,0.1-0.5,0.1-0.5,1c0,0.5-0.2,1.9,0.2,2.1c0.4,0.3,1.8,0,2.2,0h3.9
	h6.3c-3.8,3.6-4,9.4-0.4,13.3c4,4.3,10,3.6,14.1-0.2v8.3v2.3c0,0.3-0.2,1.1,0,1.4C-183.9,422.1-181.9,421.9-181.3,421.9z"/>
</svg>
