<svg id="a7b25a04-3508-4cc3-a507-b1863c9df52b" data-name="Layer 1" xmlns="http://www.w3.org/2000/svg" width="82.5mm" height="8.95mm" viewBox="0 0 233.86 25.37"><title>richter_logotype_web</title><path d="M53.12,74.88a.45.45,0,0,1,0-.42l5.74-12.31H54.65a.34.34,0,0,1-.33-.18.43.43,0,0,1,0-.41L55.52,59a1,1,0,0,1,.37-.43.92.92,0,0,1,.5-.16H69.18a.36.36,0,0,1,.35.16.45.45,0,0,1,0,.43l-1.18,2.55a1.07,1.07,0,0,1-.37.42.88.88,0,0,1-.5.17H63.21L57.46,74.46a1,1,0,0,1-.36.42.84.84,0,0,1-.51.18H53.45A.35.35,0,0,1,53.12,74.88Z" transform="translate(-24.8 -58.18)" fill="#be1e2d"/><path d="M64.44,74.88a.45.45,0,0,1,0-.42L71.66,59a1,1,0,0,1,.37-.43.94.94,0,0,1,.5-.16H79c2.08,0,3.48.47,4.21,1.41s.68,2.28-.12,4A8.5,8.5,0,0,1,81,66.67a9.53,9.53,0,0,1-3,1.78l.53,5.85a.75.75,0,0,1-.05.26.86.86,0,0,1-.32.34.72.72,0,0,1-.42.16H74.56c-.46,0-.68-.22-.67-.64l-.27-5.23H71.19l-2.46,5.27a1,1,0,0,1-.38.43.94.94,0,0,1-.51.17H64.77A.34.34,0,0,1,64.44,74.88ZM75.5,65.81a3.37,3.37,0,0,0,1.91-.54,3.48,3.48,0,0,0,1.27-1.48,1.71,1.71,0,0,0,.14-1.51c-.2-.37-.67-.56-1.41-.56H74.67l-1.9,4.09Z" transform="translate(-24.8 -58.18)" fill="#be1e2d"/><path d="M80.86,74.88a.45.45,0,0,1,0-.42L88.08,59a1,1,0,0,1,.38-.43.89.89,0,0,1,.49-.16h11.1c.18,0,.3,0,.35.16a.48.48,0,0,1,0,.43l-1,2.24a1.07,1.07,0,0,1-.36.41.88.88,0,0,1-.51.18H90.88l-1.5,3.21h7.06a.33.33,0,0,1,.34.18.5.5,0,0,1,0,.44l-1,2.07a1.06,1.06,0,0,1-.36.41.88.88,0,0,1-.51.18H87.85l-1.54,3.3h7.77a.36.36,0,0,1,.35.17.48.48,0,0,1,0,.43l-1,2.23a1.19,1.19,0,0,1-.36.42.88.88,0,0,1-.51.18H81.19A.35.35,0,0,1,80.86,74.88Z" transform="translate(-24.8 -58.18)" fill="#be1e2d"/><path d="M96.05,74.88a.45.45,0,0,1,0-.42L103.27,59a1,1,0,0,1,.38-.43.89.89,0,0,1,.49-.16h2.52q.6,0,.6.45L108.8,68,113,59a1,1,0,0,1,.38-.43.92.92,0,0,1,.5-.16h2.85a.36.36,0,0,1,.35.16.45.45,0,0,1,0,.43l-7.19,15.43a1.11,1.11,0,0,1-.37.44.88.88,0,0,1-.51.18h-2.55c-.34,0-.54-.15-.57-.45l-1.7-8.8-4,8.65a1.19,1.19,0,0,1-.36.42.88.88,0,0,1-.51.18H96.38A.34.34,0,0,1,96.05,74.88Z" transform="translate(-24.8 -58.18)" fill="#be1e2d"/><path d="M113.14,74.88a.45.45,0,0,1,0-.42L120.36,59a1,1,0,0,1,.38-.43.91.91,0,0,1,.49-.16h3.19a.39.39,0,0,1,.36.16.44.44,0,0,1,0,.43l-7.2,15.45a1.05,1.05,0,0,1-.38.43,1,1,0,0,1-.52.17h-3.18A.35.35,0,0,1,113.14,74.88Z" transform="translate(-24.8 -58.18)" fill="#be1e2d"/><path d="M120.84,74.88a.48.48,0,0,1,0-.42L128.06,59a1.12,1.12,0,0,1,.38-.43.92.92,0,0,1,.5-.16h2.51q.6,0,.6.45L133.6,68l4.19-9a1,1,0,0,1,.37-.43.92.92,0,0,1,.5-.16h2.85a.36.36,0,0,1,.35.16.48.48,0,0,1,0,.43l-7.2,15.43a1.11,1.11,0,0,1-.37.44.84.84,0,0,1-.51.18h-2.54c-.35,0-.54-.15-.58-.45l-1.7-8.8-4,8.65a1,1,0,0,1-.36.42.88.88,0,0,1-.51.18h-2.85A.36.36,0,0,1,120.84,74.88Z" transform="translate(-24.8 -58.18)" fill="#be1e2d"/><path d="M139.86,73.62q-1.14-1.68.18-4.77c.2-.46.53-1.19,1-2.18s.81-1.73,1-2.19a11.24,11.24,0,0,1,4.25-4.66,11.62,11.62,0,0,1,6.08-1.64,7.44,7.44,0,0,1,3.59.74,3.27,3.27,0,0,1,1.69,1.87,3.34,3.34,0,0,1-.15,2.36.85.85,0,0,1-.33.35.75.75,0,0,1-.43.15h-3.47a.77.77,0,0,1-.35-.07.31.31,0,0,1-.11-.27,1.8,1.8,0,0,0-.42-1.2,2,2,0,0,0-1.61-.51,4.76,4.76,0,0,0-4.37,3q-.33.66-1,2.07c-.43.92-.74,1.6-.94,2.06-.88,2.1-.35,3.14,1.58,3.14a4.88,4.88,0,0,0,2.58-.72,5,5,0,0,0,1.88-2.23l.21-.45h-2.23a.33.33,0,0,1-.34-.18.5.5,0,0,1,0-.44l.82-1.75a1.08,1.08,0,0,1,.38-.44.84.84,0,0,1,.51-.18h6a.33.33,0,0,1,.34.18.51.51,0,0,1,0,.44L155,68.81a11,11,0,0,1-2.55,3.48,11.3,11.3,0,0,1-3.67,2.23,12.06,12.06,0,0,1-4.32.77C142.15,75.29,140.63,74.74,139.86,73.62Z" transform="translate(-24.8 -58.18)" fill="#be1e2d"/><path d="M162,73.64c-.76-1.1-.7-2.7.2-4.79.18-.42.5-1.12.95-2.09s.8-1.69,1-2.14a11.48,11.48,0,0,1,4.29-4.76,11.33,11.33,0,0,1,6.06-1.68,7.31,7.31,0,0,1,3.43.7,3.18,3.18,0,0,1,1.7,2,4.49,4.49,0,0,1-.43,3l0,.05a.79.79,0,0,1-.31.32.85.85,0,0,1-.4.13H175.3a.55.55,0,0,1-.42-.13.65.65,0,0,1,0-.49,1.86,1.86,0,0,0-.26-1.7,2.29,2.29,0,0,0-1.65-.49q-2.8,0-4.36,3.14c-.22.43-.53,1.09-.94,2s-.72,1.56-.92,2c-.91,2.1-.44,3.14,1.43,3.14a4.54,4.54,0,0,0,2.14-.51,5.34,5.34,0,0,0,1.81-1.68,1.56,1.56,0,0,1,.49-.48,1.06,1.06,0,0,1,.56-.13h3.21a.32.32,0,0,1,.3.14c.06.09,0,.21,0,.36a8.91,8.91,0,0,1-2.4,3,11.39,11.39,0,0,1-3.56,2,12.07,12.07,0,0,1-4.08.7C164.3,75.29,162.78,74.74,162,73.64Z" transform="translate(-24.8 -58.18)" fill="#be1e2d"/><path d="M176.8,74.88a.48.48,0,0,1,0-.42L184,59a1,1,0,0,1,.38-.43.89.89,0,0,1,.49-.16H196a.35.35,0,0,1,.35.16.48.48,0,0,1,0,.43l-1,2.24a1.16,1.16,0,0,1-.36.41.88.88,0,0,1-.51.18h-7.59l-1.49,3.21h7.06a.33.33,0,0,1,.34.18.5.5,0,0,1,0,.44l-1,2.07a1.25,1.25,0,0,1-.36.41.88.88,0,0,1-.51.18h-7.06l-1.54,3.3H190a.37.37,0,0,1,.35.17.48.48,0,0,1,0,.43l-1.05,2.23a1,1,0,0,1-.36.42.84.84,0,0,1-.51.18H177.13A.34.34,0,0,1,176.8,74.88Z" transform="translate(-24.8 -58.18)" fill="#be1e2d"/><path d="M192,74.88a.45.45,0,0,1,0-.42L199.21,59a1,1,0,0,1,.38-.43.89.89,0,0,1,.49-.16h2.52q.6,0,.6.45L204.74,68l4.19-9a1,1,0,0,1,.38-.43.89.89,0,0,1,.49-.16h2.85c.18,0,.3,0,.35.16a.48.48,0,0,1,0,.43l-7.19,15.43a1.2,1.2,0,0,1-.37.44.88.88,0,0,1-.51.18h-2.55q-.53,0-.57-.45l-1.7-8.8-4,8.65a1,1,0,0,1-.36.42.84.84,0,0,1-.51.18h-2.85A.34.34,0,0,1,192,74.88Z" transform="translate(-24.8 -58.18)" fill="#be1e2d"/><path d="M212.74,74.88a.45.45,0,0,1,0-.42l5.74-12.31h-4.23a.36.36,0,0,1-.34-.18.46.46,0,0,1,0-.41L215.14,59a1,1,0,0,1,.37-.43.92.92,0,0,1,.5-.16h12.78c.18,0,.3,0,.35.16a.48.48,0,0,1,0,.43l-1.18,2.55a1.15,1.15,0,0,1-.37.42.89.89,0,0,1-.51.17h-4.23l-5.74,12.31a1,1,0,0,1-.36.42.86.86,0,0,1-.51.18h-3.14A.34.34,0,0,1,212.74,74.88Z" transform="translate(-24.8 -58.18)" fill="#be1e2d"/><path d="M220.88,74.9a.37.37,0,0,1,0-.34.86.86,0,0,1,.12-.22l12.7-15.26a1.71,1.71,0,0,1,.53-.47,1.38,1.38,0,0,1,.71-.19h3.52a.63.63,0,0,1,.53.19.53.53,0,0,1,.09.47l-1.56,15.26-.05.22a.86.86,0,0,1-.32.34.72.72,0,0,1-.44.16H233.8c-.38,0-.56-.17-.53-.5l.21-2.43h-6.35l-2,2.43a1.33,1.33,0,0,1-1,.5h-2.93A.29.29,0,0,1,220.88,74.9Zm13.24-6.19.72-6.28-5.14,6.28Z" transform="translate(-24.8 -58.18)" fill="#be1e2d"/><path d="M239.39,74.88a.45.45,0,0,1,0-.42L246.61,59a1,1,0,0,1,.37-.43.92.92,0,0,1,.5-.16h6.46q3.12,0,4.2,1.41t-.12,4a8.34,8.34,0,0,1-2.1,2.83,9.53,9.53,0,0,1-3,1.78l.53,5.85a.75.75,0,0,1-.05.26.86.86,0,0,1-.32.34.72.72,0,0,1-.42.16h-3.16c-.46,0-.68-.22-.67-.64l-.28-5.23h-2.42l-2.46,5.27a1,1,0,0,1-.38.43,1,1,0,0,1-.52.17h-3.06A.34.34,0,0,1,239.39,74.88Zm11.06-9.07a3.38,3.38,0,0,0,3.17-2,1.68,1.68,0,0,0,.15-1.51c-.2-.37-.67-.56-1.41-.56h-2.74l-1.9,4.09Z" transform="translate(-24.8 -58.18)" fill="#be1e2d"/><path d="M126.23,83.14H124l2.38-5.09h2a2.39,2.39,0,0,1,.83.12.65.65,0,0,1,.41.34,1.07,1.07,0,0,1-.07.88,1.89,1.89,0,0,1-.8.89l-.24.13-.22.08a.72.72,0,0,1,.55.43,1,1,0,0,1-.09.81,2.63,2.63,0,0,1-.81.94A2.8,2.8,0,0,1,126.23,83.14Zm-.64-1h.78a2.19,2.19,0,0,0,.79-.12.87.87,0,0,0,.46-.48c.11-.23.1-.39,0-.46a1.74,1.74,0,0,0-.78-.12h-.67Zm1-2.07h.54a2.42,2.42,0,0,0,.75-.1.82.82,0,0,0,.44-.44c.1-.23.1-.38,0-.45a1.21,1.21,0,0,0-.66-.11h-.54Z" transform="translate(-24.8 -58.18)" fill="#00a9a5"/><path d="M132.89,83.14h-1.14l.94-2-.32-3.08h1.23l.21,1.89,2-1.89H137l-3.2,3.08Z" transform="translate(-24.8 -58.18)" fill="#00a9a5"/><path d="M146.48,79.74a2.8,2.8,0,0,1-1.7,1.58l.44,1.82h-1.4l-.37-1.63h-.79l-.76,1.63h-1.13l2.37-5.09h1.93c.79,0,1.29.13,1.51.4S146.76,79.14,146.48,79.74Zm-1.65.6a1.3,1.3,0,0,0,.49-.6c.13-.27.15-.46.05-.56s-.33-.16-.7-.16h-.85l-.7,1.51H144A1.62,1.62,0,0,0,144.83,80.34Z" transform="translate(-24.8 -58.18)" fill="#00a9a5"/><path d="M150.26,78.05h1.14L149,83.14h-1.14Z" transform="translate(-24.8 -58.18)" fill="#00a9a5"/><path d="M154.9,82.13a2.72,2.72,0,0,0,1.68-.66l.38.75a4.27,4.27,0,0,1-2.5,1,1.66,1.66,0,0,1-1.59-.75,2,2,0,0,1,.11-1.87,4.63,4.63,0,0,1,1.66-1.89,4,4,0,0,1,2.25-.76,1.62,1.62,0,0,1,1.66.95l-1.08.81a1,1,0,0,0-1-.67,2.48,2.48,0,0,0-1.3.41,2.69,2.69,0,0,0-1,1.13,1.28,1.28,0,0,0-.1,1.14A.85.85,0,0,0,154.9,82.13Z" transform="translate(-24.8 -58.18)" fill="#00a9a5"/><path d="M164.79,78.05h1.13l-2.37,5.09h-1.14l.94-2h-2l-.93,2h-1.14l2.38-5.09h1.13l-1,2.12h2Z" transform="translate(-24.8 -58.18)" fill="#00a9a5"/><path d="M170.7,79l-1.92,4.11h-1.14L169.56,79h-1.44l.46-1h4l-.46,1Z" transform="translate(-24.8 -58.18)" fill="#00a9a5"/><path d="M178.92,78.05l-.47,1h-2.54l-.49,1h2.28l-.45,1H175l-.49,1h2.61l-.46,1h-3.76l2.38-5.09Z" transform="translate(-24.8 -58.18)" fill="#00a9a5"/><path d="M185.18,79.74a2.79,2.79,0,0,1-1.71,1.58l.44,1.82h-1.4l-.37-1.63h-.79l-.75,1.63h-1.14l2.37-5.09h1.93c.8,0,1.3.13,1.51.4S185.45,79.14,185.18,79.74Zm-1.65.6a1.43,1.43,0,0,0,.49-.6c.12-.27.14-.46,0-.56a1,1,0,0,0-.69-.16h-.85l-.71,1.51h.83A1.66,1.66,0,0,0,183.53,80.34Z" transform="translate(-24.8 -58.18)" fill="#00a9a5"/><path d="M194.39,79l-1.91,4.11h-1.14L193.26,79h-1.44l.45-1h4l-.46,1Z" transform="translate(-24.8 -58.18)" fill="#00a9a5"/><path d="M202.29,79.74a2.79,2.79,0,0,1-1.71,1.58l.44,1.82h-1.39l-.38-1.63h-.78l-.76,1.63h-1.14L199,78.05h1.93c.79,0,1.29.13,1.51.4S202.57,79.14,202.29,79.74Zm-1.65.6a1.36,1.36,0,0,0,.49-.6c.13-.27.14-.46.05-.56s-.33-.16-.7-.16h-.85l-.7,1.51h.83A1.62,1.62,0,0,0,200.64,80.34Z" transform="translate(-24.8 -58.18)" fill="#00a9a5"/><path d="M207.32,83.14l0-1.1h-2.14l-1,1.1H203l4.57-5.09h1.1l-.17,5.09Zm.13-3.58L206.12,81h1.27Z" transform="translate(-24.8 -58.18)" fill="#00a9a5"/><path d="M216.88,78.05H218l-2.37,5.09H214.5L213.56,80l-1.48,3.19h-1.14l2.38-5.09h1.06l1,3.28Z" transform="translate(-24.8 -58.18)" fill="#00a9a5"/><path d="M221.81,79.06a.72.72,0,0,0-.33.36.28.28,0,0,0,0,.35,2.22,2.22,0,0,0,.78.31,1.48,1.48,0,0,1,.88.54,1.07,1.07,0,0,1-.09,1,2.44,2.44,0,0,1-1,1.11,3,3,0,0,1-1.55.43,1.91,1.91,0,0,1-1.76-.9l1.07-.83a1.4,1.4,0,0,0,1.18.72,1.16,1.16,0,0,0,.56-.13.76.76,0,0,0,.34-.37.29.29,0,0,0,0-.36,1.58,1.58,0,0,0-.63-.27,2,2,0,0,1-1-.55c-.17-.23-.14-.58.08-1.07a2.52,2.52,0,0,1,1.05-1.12,3,3,0,0,1,1.48-.39,2.42,2.42,0,0,1,.94.18,1.51,1.51,0,0,1,.66.49l-1,.83a1.41,1.41,0,0,0-1.13-.5A1,1,0,0,0,221.81,79.06Z" transform="translate(-24.8 -58.18)" fill="#00a9a5"/><path d="M230.85,78.5c.22.31.18.77-.11,1.4a3,3,0,0,1-1.2,1.38,3.71,3.71,0,0,1-1.88.44H227l-.66,1.42h-1.14l2.38-5.09h1.8C230.14,78.05,230.64,78.2,230.85,78.5Zm-1.76,2a1.84,1.84,0,0,0,.51-.68c.14-.29.15-.5,0-.62a1,1,0,0,0-.74-.19h-.65l-.8,1.71h.77A1.51,1.51,0,0,0,229.09,80.51Z" transform="translate(-24.8 -58.18)" fill="#00a9a5"/><path d="M236.55,82.44a4,4,0,0,1-2.25.75,1.64,1.64,0,0,1-1.56-.75,2,2,0,0,1,.11-1.88,4.68,4.68,0,0,1,1.64-1.88,4.06,4.06,0,0,1,2.26-.75,1.62,1.62,0,0,1,1.55.75,2,2,0,0,1-.1,1.88A4.63,4.63,0,0,1,236.55,82.44Zm.49-1.88a1.39,1.39,0,0,0,.1-1.16.83.83,0,0,0-.85-.48,2.2,2.2,0,0,0-1.3.48,3,3,0,0,0-1,1.16,1.39,1.39,0,0,0-.1,1.16.84.84,0,0,0,.85.48,2.2,2.2,0,0,0,1.3-.48A3,3,0,0,0,237,80.56Z" transform="translate(-24.8 -58.18)" fill="#00a9a5"/><path d="M245.49,79.74a2.8,2.8,0,0,1-1.7,1.58l.44,1.82h-1.4l-.37-1.63h-.79l-.76,1.63h-1.13l2.37-5.09h1.93c.79,0,1.3.13,1.51.4S245.77,79.14,245.49,79.74Zm-1.65.6a1.3,1.3,0,0,0,.49-.6c.13-.27.15-.46,0-.56s-.33-.16-.7-.16h-.85l-.7,1.51H243A1.62,1.62,0,0,0,243.84,80.34Z" transform="translate(-24.8 -58.18)" fill="#00a9a5"/><path d="M250.86,79,249,83.14h-1.14L249.73,79h-1.44l.45-1h4l-.46,1Z" transform="translate(-24.8 -58.18)" fill="#00a9a5"/><polygon points="11.75 0.18 16 0.18 4.25 25.37 0 25.37 11.75 0.18" fill="#be1e2d"/><polygon points="18.11 0.18 22.36 0.18 10.61 25.37 6.36 25.37 18.11 0.18" fill="#be1e2d"/><polygon points="24.48 0.18 28.73 0.18 16.98 25.37 12.73 25.37 24.48 0.18" fill="#be1e2d"/></svg>